<?xml version="1.0" encoding="UTF-8"?>
<svg version="1.1" viewBox="0 0 947 917" width="1280" height="1280" xmlns="http://www.w3.org/2000/svg">
<path transform="translate(0)" d="m0 0h947v917h-947z" fill="#FDFEFD"/>
<path transform="translate(500,69)" d="m0 0h12l12 4 8 5 8 8 6 11 2 7 1 21v181l2 19 4 18 5 12 9 16 7 9 8 9 2 1v2l4 2 11 8 5 1-6-9-7-10-5-11-4-15-1-16 2-16 5-15 6-11 9-11 3-1 2-4 12-9 12-6 18-5h22l16 4 12 5 10 6 10 9 10 11 8 15 4 11 2 11v18l-4 16-4 9-4 8-7 10-1 4 8-4 9-7 9-9 10-13 9-17 5-15 3-22 1-202 2-13 6-12 10-10 11-6 7-2h14l11 4 9 6 8 8 6 12 2 11v183l-1 28-4 25-5 19-5 13-11 23-12 19-11 14-8 8-1 5h10l16 2 16 8 7 7 8 16 1 15-3 12-6 10-10 9-8 4-6 2-7 1-137 1-72 1-19 3-21 7-10 6-16 13-8 7-10 13-1 3 6-2 10-7 12-6 15-4 5-1h15l16 3 16 6 11 7 12 11 10 13 6 12 4 14 1 6v22l-4 16-8 16-7 9-4 5-8 7-11 7-11 5-11 3-7 1h-21l-12-2-13-5-12-7-8-7-4-1 5 9 7 9 13 12 13 9 16 8 14 5 10 2 20 1h159l39 1 10 2 10 5 10 9 6 9 3 9 1 11-3 13-5 9-4 5h-2v2l-14 8-6 2-22 1h-192l-20-2-16-3-16-4-17-6-20-10-14-9-14-11-5-4-4-5-3-2h-3l-1 23-4 10-6 8-8 8-11 5-4 1h-15l-13-4-9-6-8-9-5-9-2-16v-81l-1-116-2-17-4-16-8-18-8-12-8-10-8-8-12-6 4 7 8 16 5 17v27l-4 15-8 16-11 13-11 10-15 8-18 5h-30l-17-5-14-7-10-9-8-8-7-10-6-12-4-15-1-8v-16l3-14 5-12 8-14 1-3-6 3-8 6-1 2h-2v2h-2l-2 4-10 13-10 19-5 17-2 18-1 201-2 12-4 10-9 10-7 6-10 4-4 1h-12l-13-3-11-7-8-8-5-10-2-12v-217l4-23 6-22 8-18 12-22 12-17 9-12 4-5 1-4 8-2h177l23-2 18-3 20-6 15-6 2 1-1 2 7 1 6 4v2h2l6 7 2 1v2l4 2 7 8 11 14 10 15 10 19-1 5-12 20-8 16-8 22-4 17-2 11-1 19v21l1 21 6 26 8 23 8 16 10 16 13 16 8 7 1-12-1-167-1-18-4-22-8-24-3-7v-6l9-12 17-17 11-9 14-10 19-11 5-2-1-4-10-9-8-7-9-9-7-8-9-12-8-13-6-10-1-3v-8l9-12 8-14 5-11 5-13 6-25 3-21v-33l-2-18-3-15-6-20-9-21-7-14-8-12-9-12-11-11-2-10 1-14 2-11 7-12 7-7 8-5z" fill="#ADC801"/>
<path transform="translate(500,69)" d="m0 0h12l12 4 8 5 8 8 6 11 2 7 1 21v181l2 19 4 18 5 12 9 16 7 9 8 9 2 1v2l4 2 11 8 5 1-6-9-7-10-5-11-4-15-1-16 2-16 5-15 6-11 9-11 3-1 2-4 12-9 12-6 18-5h22l16 4 12 5 10 6 10 9 10 11 8 15 4 11 2 11v18l-4 16-4 9-4 8-7 10-1 4 8-4 9-7 9-9 10-13 9-17 5-15 3-22 1-202 2-13 6-12 10-10 11-6 7-2h14l11 4 9 6 8 8 6 12 2 11v183l-1 28-4 25-5 19-5 13-11 23-12 19-11 14-8 8-2 6-7 4-8 8-16 12-21 12-16 7-20 7-22 5-28 3-19-1-21-2-27-7-20-8-16-8-16-10-4-2-7-8-13-11-11-11-7-8-9-12-8-13-6-10-1-3v-8l9-12 8-14 5-11 5-13 6-25 3-21v-33l-2-18-3-15-6-20-9-21-7-14-8-12-9-12-11-11-2-10 1-14 2-11 7-12 7-7 8-5z" fill="#F1675E"/>
<path transform="translate(134,68)" d="m0 0h171l31 1 19 3 25 6 24 10 16 8 22 15 9 7 8 9 3 13 1 162 2 32 5 23 7 21 3 6-1 7-9 10-12 12-8 7-18 14-22 14-15 5-16 6-18 5-22 3-15 1h-177l-13 1-20-2-10-4-8-7-7-8-4-11-1-5v-10l4-13 4-7 9-9 10-6 7-2 17-1h190l26-4 12-4 19-9 12-9 10-9 7-8 3-4 1-4-9 3-6 4-18 6-17 3h-20l-15-4-19-10-13-12-9-13-5-10-4-14-1-6v-24l5-17 8-15 11-12 5-5 12-9 14-6 11-3 8-1h16l19 5 16 8 11 8h3l-3-7-10-13-8-7-14-11-25-12-12-3-18-2-208-1-14-5-12-11-6-10-3-8v-15l3-9 4-8 10-10 10-6 7-2z" fill="#638DFD"/>
<path transform="translate(807,445)" d="m0 0 1 2h10l16 2 16 8 7 7 8 16 1 15-3 12-6 10-10 9-8 4-6 2-7 1-137 1-72 1-19 3-21 7-10 6-16 13-8 7-10 13-1 3 6-2 10-7 12-6 15-4 5-1h15l16 3 16 6 11 7 12 11 10 13 6 12 4 14 1 6v22l-4 16-8 16-7 9-4 5-8 7-11 7-11 5-11 3-7 1h-21l-12-2-13-5-12-7-8-7-4-1 5 9 7 9 13 12 13 9 16 8 14 5 10 2 20 1h159l39 1 10 2 10 5 10 9 6 9 3 9 1 11-3 13-5 9-4 5h-2v2l-14 8-6 2-22 1h-192l-20-2-16-3-16-4-17-6-20-10-14-9-14-11-5-4-4-5-3-2h-3l-1 23-2 4v-33l-11-11 1-2 9 9 2 1 1-12-1-167-1-18-4-22-8-24-3-7v-6l9-12 17-17 11-9 14-10 19-11 5-2 2-2 1 3 4 1 13 8 10 6 16 7 17 6 23 6 32 3h8l28-3 22-5 20-7 16-7 16-9 13-9 11-9 9-8z" fill="#FAB902"/>
<path transform="translate(632,448)" d="m0 0h169l-2 5-7 7-16 12-21 12-16 7-20 7-22 5-28 3-19-1-21-2-27-7-20-8-16-8-13-8-3-4 1-4 16-6 21-6 12-2z" fill="#D2373B"/>
<path transform="translate(271,413)" d="m0 0h25l16 1 21 4 24 8 11 5 7 3 16 9 7 5-1 4-14 6-22 6-22 3-15 1h-166l-10-1 5-5 15-12 15-10 9-5 17-8 20-7 29-6z" fill="#3A51C1"/>
<path transform="translate(134,68)" d="m0 0h171l31 1 19 3 25 6 24 10 16 8 22 15 9 7 8 9 3 13 1 162 2 32 5 23 7 21 3 6-1 7-9 10-12 12-8 7-18 14-22 14-5 2h-5l1-3 9-3 12-7 10-6 5-5 10-7 5-5 7-6 5-5 8-9h2l2-8-6-18-4-13-4-21-2-21-1-162-2-7-3-3-3-10-2-9-7-6-10-7-11-8-9-5-14-7-15-6-16-5-20-4-26-3h-200l-12 5-6 5h-2l-2 4-5 5-6 12v18l4 8 6 9 5 4v2l15 6 6 2h211l13 2 16 4 15 8 6 3 15 12 8 7 11 14 3 6-1 4-4 4-6-4-8-6-20-10-18-4-17 1-15 4-16 8-10 8-6 6h-2l-2 5-7 10-7 18-1 9v18l1 10 3 9v3h2l3 8 1 4h2l4 6v2l3 1v2l3 1 5 5 7 6 12 6 3 2 6 1 7 2h21l16-3 15-5 13-8 11-1-1 7-8 10-6 7-5 5-11 8-19 10-17 6-25 4h-161l-46 1-12 4-11 8-4 5-4 7-3 7v21h2l4 9 3 4v2l4 2 9 6 11 3 18 1 4 2-1 1-21-1-12-3-8-5-9-9-4-8-3-11v-10l4-13 4-7 9-9 10-6 7-2 17-1h190l26-4 12-4 19-9 12-9 10-9 7-8 3-4 1-4-9 3-6 4-18 6-17 3h-20l-15-4-19-10-13-12-9-13-5-10-4-14-1-6v-24l5-17 8-15 11-12 5-5 12-9 14-6 11-3 8-1h16l19 5 16 8 11 8h3l-3-7-10-13-8-7-14-11-25-12-12-3-18-2-208-1-14-5-12-11-6-10-3-8v-15l3-9 4-8 10-10 10-6 7-2z" fill="#7D96DF"/>
<path transform="translate(222,512)" d="m0 0h7l-1 6-7 8-2-3v-2l-6 3-8 6-1 2h-2v2h-2l-2 4-10 13-10 19-5 17-2 18-1 201-2 12-4 10-5 2 6-14 1-212 4-23 3-9 5-12 8-13 8-11 15-15 9-6z" fill="#A7B327"/>
<path transform="translate(400,450)" d="m0 0 2 1-2 5-14 6-21 6-21 3-13 1-186 1-15 16-4 7h-2l3-9 11-14 1-4 8-2h177l23-2 18-3 20-6z" fill="#9BB22C"/>
<path transform="translate(106,522)" d="m0 0 1 4-5 10-6 16-1 1-2 9-4 16-2 25v207l2 12 3 5v2h2l7 8 3 2-1 2-5-2-8-8-5-10-2-12v-217l4-23 6-22 7-16 3-3z" fill="#AFB323"/>
<path transform="translate(416,329)" d="m0 0h4l-1 7-8 10-6 7-5 5-11 8-19 10-17 6-25 4h-161l-46 1-12 4-11 8-4 5-4 7-3 7v21h2l4 9 3 4v2l4 2 9 6 11 3 18 1 4 2-1 1-21-1-12-3-8-5-9-9-4-8-3-11v-10l4-13 4-7 9-9 10-6 7-2 17-1h190l26-4 12-4 19-9 12-9 10-9 7-8 3-4 1-4-9 3-6 4-11 4-4-1 5-3 10-4 9-6z" fill="#7D96DA"/>
<path transform="translate(268,410)" d="m0 0h35l6 2 13 1 25 7 8 3 17 7 12 7 9 5 8 5-1 4-3-1-1-3-17-10-5-3-13-5-12-5-19-6-18-3-16-1h-25l-19 2-26 6-19 7-18 8-12 8-14 10-16 13-9-1v-1l8-2 5-3 6-5 3-3 8-6 10-6h2v-2l10-5 2-2 13-5 11-5 13-4 3-2 11-1 6-2 17-2z" fill="#6384D4"/>
<path transform="translate(367,376)" d="m0 0 2 1-10 5-21 5-9 1-210 1-11 4h-3l6-4 10-3 57-1h150l25-4z" fill="#6384D4"/>
<path transform="translate(118,385)" d="m0 0h23v1l-20 1-12 4-11 8-4 5-4 7-3 7v21h2l4 9 3 4v2l4 2 9 6 11 3 18 1 4 2-1 1-21-1-12-3-8-5-9-9-4-8-3-11v-10l4-13 4-7 9-9 10-6z" fill="#7D96DC"/>
<path transform="translate(208,546)" d="m0 0h2l-1 5-2 9-1 13 2 20 7 19 9 12-1 2-7-6-7-12-4-11-3-17v-16l3-14 1-3z" fill="#B0B323"/>
<path transform="translate(222,512)" d="m0 0h7l-1 6-7 8-2-3v-2l-6 3-8 6-1 2h-2v2h-2l-2 4-10 13-2 2-2-1 2-5 8-11 15-15 9-6z" fill="#A5B228"/>
<path transform="translate(118,385)" d="m0 0h23v1l-20 1-12 4-11 8-4 5-4 7-3 7v21l-2-2-1-5v-10l4-13 4-7 9-9 10-6z" fill="#7D96DF"/>
<path transform="translate(106,522)" d="m0 0 1 4-5 10-6 16-1 1-2 9-1 3-3 1 1-9 4-12 6-14 3-3z" fill="#ABB325"/>
<path transform="translate(340,512)" d="m0 0h7l10 8-2 1-8-2 4 8 5 8 2 6-3-3-6-10-1-3h-2l-5-7z" fill="#9BB22C"/>
<path transform="translate(127,341)" d="m0 0 9 2 1 1-1 7-1 2h-8l-3-2 1-8z" fill="#9BB22D"/>
<path transform="translate(157,831)" d="m0 0 2 1-3 5-8 7-7 3-12 1-11-1-3-2 22-1 10-4z" fill="#A9B326"/>
<path transform="translate(363,584)" d="m0 0h1v11l-3 10-7 13-6 4 1-4 2-1 2-5 4-7 3-8 1-1 1-10z" fill="#B2B322"/>
<path transform="translate(184,552)" d="m0 0h2l-2 6-7 15-3 9-2-2v-6l3-7 6-12z" fill="#ADB324"/>
<path transform="translate(332,636)" d="m0 0h2l-1 4-10 6-12 5-7 1 1-3 16-6 8-4z" fill="#BCB41E"/>
<path transform="translate(404,455)" d="m0 0 10 3v2h2l6 7 2 1v2l4 2-1 4-7-6v-2l-4-2-12-10z" fill="#B1B322"/>
<path transform="translate(432,480)" d="m0 0 8 6 13 18 1 6-4-4-13-19-5-5z" fill="#C0B51C"/>
<path transform="translate(421,320)" d="m0 0 3 1-1 7-3 4v-3l-10 2 2-4z" fill="#6384D4"/>
<path transform="translate(86,821)" d="m0 0 5 3 1 5h2l7 8 3 2-1 2-5-2-8-8-4-8z" fill="#BDB41D"/>
<path transform="translate(431,608)" d="m0 0h1l-1 11-2 38h-1l-1-14v-13h1l2-17z" fill="#DDB70F"/>
<path transform="translate(478,826)" d="m0 0 1 3-7 8-7 6-7 1 3-3 5-3 5-4 2-3h2l2-4z" fill="#BCB41E"/>
<path transform="translate(208,602)" d="m0 0 2 2 3 7 5 5 6 8-1 2-7-6-7-12z" fill="#CCB616"/>
<path transform="translate(184,552)" d="m0 0h2l-2 6-5 10-1-3 1-7z" fill="#B7B420"/>
<path transform="translate(359,605)" d="m0 0 1 2-6 11-6 4 1-4 2-1 2-5z" fill="#BEB41D"/>
<path transform="translate(206,593)" d="m0 0h2l6 17-1 2-5-9-2-3z" fill="#9FB22B"/>
<path transform="translate(88,565)" d="m0 0h3v7l-2 6-3 1 1-10z" fill="#A3B229"/>
<path transform="translate(386,364)" d="m0 0m-1 1m-2 1h2l-1 3-17 8-2-1z" fill="#7D96DF"/>
<path transform="translate(165,818)" d="m0 0h2l-1 6-3 5-4 1 5-11z" fill="#B8B41F"/>
<path transform="translate(459,516)" d="m0 0 3 4 4 8-1 5-3 3v-11l-3-6z" fill="#FBBA02"/>
<path transform="translate(421,210)" d="m0 0 3 1v7l-5-1-1-3z" fill="#6384D4"/>
<path transform="translate(208,546)" d="m0 0h2l-1 5-4 7h-1l1-8 1-3z" fill="#BFB51C"/>
<path transform="translate(157,334)" d="m0 0 4 1-1 4-4 1-1-4z" fill="#9BB22D"/>
<path transform="translate(332,636)" d="m0 0h2l-1 4-6 4-2-1 5-5z" fill="#C9B518"/>
</svg>
